<?xml version="1.0" encoding="UTF-8"?>
<svg version="1.1" xmlns="http://www.w3.org/2000/svg" width="564" height="528">
<path d="M0,0 L51,0 L78,4 L105,11 L128,19 L155,32 L179,47 L189,55 L200,64 L210,73 L223,86 L232,97 L242,110 L251,124 L259,138 L267,154 L274,171 L274,173 L233,173 L224,154 L215,139 L213,134 L211,134 L201,120 L190,108 L185,103 L175,93 L161,82 L148,73 L132,64 L109,53 L87,46 L66,41 L41,38 L10,38 L-14,41 L-39,47 L-57,53 L-75,61 L-92,70 L-104,78 L-116,87 L-130,99 L-142,111 L-143,113 L-145,113 L-147,117 L-156,128 L-165,141 L-175,158 L-180,169 L-181,173 L-222,173 L-220,164 L-211,144 L-200,124 L-193,114 L-183,100 L-171,86 L-162,76 L-160,76 L-158,72 L-147,62 L-137,54 L-123,44 L-104,32 L-81,21 L-66,15 L-40,7 L-16,2 Z " fill="#040404" transform="translate(256,1)"/>
<path d="M0,0 L41,0 L51,19 L61,35 L61,37 L64,38 L74,51 L88,66 L100,77 L118,90 L134,100 L156,111 L176,118 L199,124 L215,127 L225,128 L267,128 L289,125 L319,117 L342,108 L361,98 L372,91 L387,80 L401,68 L414,55 L421,46 L423,46 L425,41 L428,37 L430,37 L432,32 L443,14 L450,0 L492,0 L489,9 L480,28 L467,49 L457,63 L448,74 L437,86 L421,102 L410,111 L392,124 L377,133 L360,142 L341,150 L320,157 L296,163 L275,166 L265,167 L229,167 L202,164 L179,159 L153,151 L132,142 L109,130 L88,116 L78,108 L64,96 L48,80 L39,69 L29,56 L18,39 L10,25 L0,4 Z " fill="#040404" transform="translate(36,361)"/>
<path d="M0,0 L11,3 L47,16 L73,25 L100,34 L127,25 L152,16 L180,6 L184,4 L198,28 L204,41 L200,44 L157,59 L127,70 L117,73 L117,199 L127,203 L130,205 L138,206 L150,211 L181,222 L200,229 L201,233 L190,253 L181,267 L180,265 L169,262 L139,251 L102,238 L93,239 L63,250 L26,263 L4,271 L0,271 L0,229 L9,225 L39,214 L59,207 L67,204 L78,201 L78,70 L67,67 L22,51 L0,43 Z " fill="#F16B05" transform="translate(285,131)"/>
<path d="M0,0 L3,0 L3,43 L-6,47 L-44,60 L-72,70 L-75,70 L-75,201 L-47,211 L-15,222 L2,228 L3,229 L3,271 L-3,270 L-35,259 L-88,240 L-94,238 L-103,239 L-127,248 L-160,260 L-174,265 L-177,265 L-178,267 L-184,257 L-193,242 L-198,231 L-196,229 L-166,218 L-136,207 L-115,199 L-113,199 L-113,72 L-124,69 L-163,55 L-199,43 L-200,39 L-192,23 L-182,6 L-180,5 L-165,11 L-124,25 L-98,34 L-89,32 L-61,22 L-19,7 Z " fill="#F16B05" transform="translate(275,131)"/>
<path d="M0,0 L107,0 L108,4 L108,33 L107,34 L0,35 L-4,36 L-5,39 L-5,47 L0,52 L70,53 L82,56 L92,62 L99,69 L104,77 L107,86 L108,99 L104,114 L97,124 L88,132 L77,137 L73,138 L8,139 L-40,139 L-43,137 L-43,105 L-42,104 L63,103 L68,100 L69,98 L69,89 L65,87 L59,86 L-11,85 L-22,81 L-30,75 L-38,66 L-42,57 L-43,53 L-43,34 L-39,23 L-33,15 L-24,7 L-16,3 L-9,1 Z " fill="#060606" transform="translate(455,198)"/>
<path d="M0,0 L42,0 L50,10 L64,27 L72,37 L83,50 L93,63 L104,76 L105,0 L142,0 L142,137 L141,138 L105,138 L93,124 L84,113 L73,99 L62,86 L53,75 L45,65 L39,58 L38,135 L37,136 L0,136 Z " fill="#040404" transform="translate(210,199)"/>
<path d="M0,0 L93,0 L109,4 L124,12 L136,23 L143,32 L150,46 L153,59 L153,78 L150,91 L143,105 L137,113 L127,123 L116,130 L104,135 L91,138 L0,138 Z M37,33 L37,105 L86,105 L97,101 L106,95 L112,87 L116,77 L116,62 L111,50 L102,40 L90,34 L85,33 Z " fill="#040404" transform="translate(1,199)"/>
</svg>
